<svg width="1200" height="900" viewBox="0 0 1200 900" fill="none" xmlns="http://www.w3.org/2000/svg">
  <rect width="1200" height="900" rx="56" fill="#031927"/>
  <rect x="90" y="120" width="430" height="660" rx="34" fill="#FFFFFF"/>
  <rect x="130" y="180" width="350" height="42" rx="12" fill="#EEF3F7"/>
  <rect x="130" y="250" width="280" height="20" rx="10" fill="#D2DEE7"/>
  <rect x="130" y="308" width="330" height="122" rx="22" fill="#9DD1F1"/>
  <rect x="130" y="460" width="330" height="18" rx="9" fill="#D2DEE7"/>
  <rect x="130" y="498" width="240" height="18" rx="9" fill="#D2DEE7"/>
  <rect x="130" y="560" width="185" height="52" rx="14" fill="#F04A00"/>
  <rect x="560" y="170" width="560" height="195" rx="28" fill="#FFFFFF"/>
  <rect x="600" y="220" width="240" height="22" rx="11" fill="#D2DEE7"/>
  <rect x="600" y="262" width="180" height="20" rx="10" fill="#D2DEE7"/>
  <rect x="560" y="404" width="560" height="312" rx="28" fill="#9DD1F1"/>
  <rect x="600" y="452" width="300" height="25" rx="12" fill="#031927"/>
  <rect x="600" y="496" width="200" height="18" rx="9" fill="#5A7588"/>
  <rect x="600" y="550" width="220" height="56" rx="14" fill="#F04A00"/>
</svg>
