<svg width="1526" height="1333" viewBox="0 0 1526 1333" fill="none" xmlns="http://www.w3.org/2000/svg">
<path d="M701.281 3.25017C665.567 13.4068 630.883 41.8455 614.743 74.6854C606.501 91.2747 597.229 130.547 600.663 133.933C601.693 134.948 631.913 129.193 668.314 121.406C704.371 113.281 763.78 100.754 800.181 92.9675L866.115 79.0866L860.277 68.93C847.227 46.5853 824.563 25.9334 799.494 13.7454C778.203 3.25015 770.305 1.2188 745.58 0.203129C728.41 -0.473982 710.896 0.541726 701.281 3.25017Z" fill="#F04A00"/>
<path d="M945.443 88.5671C854.097 108.542 566.324 169.143 445.103 193.858C435.831 195.551 424.498 213.833 409.732 251.074C399.43 276.127 384.32 337.067 387.411 340.114C388.784 341.468 507.602 312.014 702.999 261.231C778.205 241.594 841.391 225.682 843.108 225.682C844.825 225.682 842.421 230.422 838.3 236.177C830.402 246.673 808.081 261.908 717.079 319.124C575.253 408.164 485.624 488.401 439.265 568.301C428.276 586.583 428.276 586.921 455.061 622.47C529.923 722.682 671.062 782.268 800.526 768.049C958.835 750.782 1084.52 655.987 1137.06 515.147C1155.61 465.38 1160.07 439.311 1159.73 379.725C1159.73 335.036 1158.35 320.139 1151.83 294.07C1147.36 276.804 1142.56 262.923 1140.84 263.6C1139.47 264.278 1122.64 287.299 1104.1 315.399C1014.12 449.806 867.833 555.097 736.653 579.812C696.818 587.26 636.379 585.228 636.379 576.426C636.379 574.395 643.59 561.868 652.519 549.003C701.625 476.214 790.224 392.929 881.226 333.681C944.756 292.378 1032.32 249.381 1101 225.682C1113.71 221.281 1124.01 215.864 1124.01 213.833C1124.01 206.385 1086.24 150.184 1065.63 127.501C1041.25 100.417 1011.03 76.3791 1001.76 77.0562C998.327 77.3947 972.915 82.4731 945.443 88.5671Z" fill="#F04A00"/>
<path d="M239.172 1229.69H0V1178.45L132.92 989.671H3.14976V922.685H235.813V973.712L102.892 1162.7H239.172V1229.69Z" fill="#F04A00"/>
<path d="M342.527 987.571C365.625 987.571 385.574 991.631 402.372 999.75C419.171 1007.73 432.12 1019.77 441.22 1035.87C450.319 1051.97 454.869 1072.13 454.869 1096.34V1132.88H308.089C308.789 1145.34 313.409 1155.56 321.948 1163.54C330.628 1171.52 343.367 1175.51 360.166 1175.51C375.004 1175.51 388.583 1174.04 400.903 1171.1C413.362 1168.16 426.171 1163.61 439.33 1157.45V1216.46C427.851 1222.48 415.321 1226.89 401.742 1229.69C388.163 1232.49 371.015 1233.89 350.296 1233.89C326.358 1233.89 304.94 1229.62 286.041 1221.08C267.142 1212.54 252.233 1199.31 241.314 1181.39C230.535 1163.47 225.145 1140.44 225.145 1112.3C225.145 1083.74 230.045 1060.3 239.844 1041.96C249.644 1023.48 263.363 1009.83 281.001 1001.01C298.64 992.051 319.149 987.571 342.527 987.571ZM345.467 1043.43C335.807 1043.43 327.688 1046.51 321.108 1052.67C314.669 1058.69 310.889 1068.21 309.769 1081.23H380.324C380.184 1074.23 378.784 1067.86 376.124 1062.12C373.465 1056.38 369.545 1051.83 364.365 1048.47C359.326 1045.11 353.026 1043.43 345.467 1043.43Z" fill="#F04A00"/>
<path d="M603.58 987.571C629.898 987.571 650.546 998.14 665.525 1019.28C680.504 1040.28 687.993 1070.59 687.993 1110.2C687.993 1137.22 684.214 1159.97 676.654 1178.45C669.095 1196.79 658.736 1210.65 645.577 1220.03C632.558 1229.27 617.719 1233.89 601.06 1233.89C589.861 1233.89 580.341 1232.49 572.502 1229.69C564.803 1226.89 558.363 1223.39 553.183 1219.19C548.144 1214.99 543.874 1210.72 540.374 1206.38H537.854C538.554 1211.84 539.114 1217.72 539.534 1224.02C540.094 1230.32 540.374 1237.67 540.374 1246.07V1333H458.27V991.771H525.045L536.595 1022.01H540.374C544.294 1015.85 549.054 1010.18 554.653 1005C560.253 999.68 567.042 995.48 575.022 992.401C583.141 989.181 592.661 987.571 603.58 987.571ZM572.712 1052.04C564.733 1052.04 558.433 1053.93 553.813 1057.71C549.194 1061.49 545.834 1067.23 543.734 1074.93C541.774 1082.49 540.654 1091.93 540.374 1103.27V1109.78C540.374 1122.38 541.354 1133.02 543.314 1141.7C545.274 1150.24 548.634 1156.75 553.393 1161.23C558.153 1165.57 564.733 1167.74 573.132 1167.74C579.991 1167.74 585.731 1165.78 590.351 1161.86C594.97 1157.94 598.47 1151.71 600.85 1143.17C603.23 1134.63 604.42 1123.36 604.42 1109.36C604.42 1088.5 601.69 1073.74 596.23 1065.06C590.911 1056.38 583.071 1052.04 572.712 1052.04Z" fill="#F04A00"/>
<path d="M808.147 987.571C838.245 987.571 861.763 995.06 878.701 1010.04C895.64 1024.88 904.11 1046.09 904.11 1073.67V1229.69H847.204L831.455 1198.19H829.775C823.056 1206.59 816.126 1213.45 808.987 1218.77C801.987 1223.95 793.938 1227.73 784.838 1230.11C775.739 1232.63 764.61 1233.89 751.451 1233.89C737.732 1233.89 725.413 1231.09 714.494 1225.49C703.574 1219.89 694.965 1211.42 688.665 1200.08C682.366 1188.74 679.216 1174.39 679.216 1157.03C679.216 1131.55 688.036 1112.65 705.674 1100.33C723.313 1088.01 748.861 1081.09 782.319 1079.55L822.006 1078.29V1074.93C822.006 1064.29 819.346 1056.73 814.026 1052.25C808.847 1047.77 801.847 1045.53 793.028 1045.53C783.648 1045.53 773.149 1047.21 761.53 1050.57C750.051 1053.79 738.502 1057.99 726.883 1063.17L703.154 1008.99C716.873 1001.99 732.412 996.67 749.771 993.03C767.13 989.391 786.588 987.571 808.147 987.571ZM822.426 1123.43L803.527 1124.27C788.408 1124.83 777.769 1127.49 771.609 1132.25C765.59 1136.87 762.58 1143.52 762.58 1152.2C762.58 1160.32 764.75 1166.34 769.09 1170.26C773.429 1174.04 779.169 1175.93 786.308 1175.93C796.248 1175.93 804.717 1172.78 811.716 1166.48C818.856 1160.18 822.426 1151.99 822.426 1141.91V1123.43Z" fill="#F04A00"/>
<path d="M1060.59 987.571C1065.07 987.571 1069.76 987.921 1074.66 988.621C1079.56 989.181 1083.2 989.671 1085.58 990.091L1078.23 1067.58C1075.57 1066.88 1072.14 1066.32 1067.94 1065.9C1063.74 1065.34 1057.86 1065.06 1050.3 1065.06C1045.12 1065.06 1039.59 1065.55 1033.71 1066.53C1027.83 1067.51 1022.23 1069.61 1016.91 1072.83C1011.73 1075.91 1007.46 1080.67 1004.1 1087.1C1000.74 1093.4 999.065 1101.94 999.065 1112.72V1229.69H916.961V991.771H978.066L990.875 1029.78H994.865C999.205 1021.94 1004.73 1014.87 1011.45 1008.57C1018.31 1002.13 1025.94 997.02 1034.34 993.24C1042.88 989.461 1051.63 987.571 1060.59 987.571Z" fill="#F04A00"/>
<path d="M1157.23 1333C1123.49 1333 1097.45 1327.33 1079.11 1315.99C1060.91 1304.79 1051.81 1288.62 1051.81 1267.48C1051.81 1253.34 1056.22 1241.66 1065.04 1232.42C1073.86 1223.18 1087.09 1216.53 1104.73 1212.47C1097.45 1209.39 1091.08 1204.42 1085.62 1197.56C1080.3 1190.7 1077.64 1183.91 1077.64 1177.19C1077.64 1169.77 1079.67 1163.26 1083.73 1157.66C1087.79 1151.92 1096.26 1145.13 1109.14 1137.29C1096.82 1131.83 1087.09 1123.29 1079.95 1111.67C1072.95 1100.05 1069.45 1085.91 1069.45 1069.26C1069.45 1052.04 1073.37 1037.34 1081.21 1025.16C1089.19 1012.98 1100.74 1003.67 1115.86 997.23C1131.12 990.791 1149.67 987.571 1171.5 987.571C1174.44 987.571 1178.92 987.851 1184.94 988.411C1190.96 988.831 1197.05 989.391 1203.21 990.091C1209.37 990.651 1214.13 991.211 1217.49 991.771H1300.43V1031.46L1267.89 1043.43C1270.13 1047.49 1271.81 1051.9 1272.93 1056.66C1274.05 1061.42 1274.61 1066.46 1274.61 1071.78C1274.61 1097.39 1265.58 1117.27 1247.52 1131.41C1229.6 1145.55 1202.79 1152.62 1167.09 1152.62C1158.27 1152.62 1151.28 1152.06 1146.1 1150.94C1145.12 1152.76 1144.35 1154.58 1143.79 1156.4C1143.37 1158.08 1143.16 1159.69 1143.16 1161.23C1143.16 1164.45 1145.05 1167.04 1148.83 1169C1152.75 1170.82 1157.44 1172.08 1162.89 1172.78C1168.49 1173.48 1173.81 1173.83 1178.85 1173.83H1218.33C1245.07 1173.83 1265.09 1179.43 1278.39 1190.63C1291.69 1201.83 1298.33 1218.7 1298.33 1241.24C1298.33 1270.21 1285.95 1292.75 1261.17 1308.85C1236.53 1324.95 1201.88 1333 1157.23 1333ZM1161.21 1281.76C1171.15 1281.76 1181.16 1280.85 1191.24 1279.03C1201.32 1277.35 1209.79 1274.55 1216.65 1270.63C1223.51 1266.71 1226.94 1261.53 1226.94 1255.09C1226.94 1250.19 1224.91 1246.49 1220.85 1243.97C1216.79 1241.59 1211.54 1239.98 1205.1 1239.14C1198.66 1238.3 1191.87 1237.88 1184.73 1237.88H1152.82C1146.94 1237.88 1141.55 1238.79 1136.65 1240.61C1131.89 1242.57 1128.11 1245.16 1125.31 1248.38C1122.51 1251.59 1121.11 1255.23 1121.11 1259.29C1121.11 1266.01 1124.75 1271.4 1132.03 1275.46C1139.31 1279.66 1149.04 1281.76 1161.21 1281.76ZM1172.34 1106.21C1180.18 1106.21 1186.2 1103.2 1190.4 1097.18C1194.74 1091.16 1196.91 1082.14 1196.91 1070.1C1196.91 1057.78 1194.88 1048.54 1190.82 1042.38C1186.76 1036.22 1180.6 1033.14 1172.34 1033.14C1163.8 1033.14 1157.43 1036.22 1153.24 1042.38C1149.04 1048.4 1146.94 1057.5 1146.94 1069.68C1146.94 1081.86 1149.04 1091.02 1153.24 1097.18C1157.43 1103.2 1163.8 1106.21 1172.34 1106.21Z" fill="#F04A00"/>
<path d="M1442.64 987.571C1467.13 987.571 1487.15 994.5 1502.69 1008.36C1518.23 1022.22 1526 1044.41 1526 1074.93V1229.69H1443.9V1099.91C1443.9 1084.09 1441.59 1072.2 1436.97 1064.22C1432.49 1056.1 1425.21 1052.04 1415.13 1052.04C1399.59 1052.04 1389.16 1058.41 1383.84 1071.15C1378.52 1083.74 1375.86 1101.87 1375.86 1125.53V1229.69H1293.76V991.771H1355.7L1366.83 1023.27H1369.98C1375.02 1015.71 1381.04 1009.27 1388.04 1003.95C1395.04 998.63 1403.09 994.57 1412.19 991.771C1421.29 988.971 1431.44 987.571 1442.64 987.571Z" fill="#F04A00"/>
</svg>
